<?xml version="1.0" encoding="UTF-8" standalone="no"?>
<!-- Created with Inkscape (http://www.inkscape.org/) -->

<svg
   xmlns:dc="http://purl.org/dc/elements/1.1/"
   xmlns:cc="http://creativecommons.org/ns#"
   xmlns:rdf="http://www.w3.org/1999/02/22-rdf-syntax-ns#"
   xmlns:svg="http://www.w3.org/2000/svg"
   xmlns="http://www.w3.org/2000/svg"
   xmlns:sodipodi="http://sodipodi.sourceforge.net/DTD/sodipodi-0.dtd"
   xmlns:inkscape="http://www.inkscape.org/namespaces/inkscape"
   width="210mm"
   height="297mm"
   viewBox="0 0 210 297"
   version="1.1"
   id="svg8"
   inkscape:version="0.92.3 (2405546, 2018-03-11)"
   sodipodi:docname="logo.svg">
  <defs
     id="defs2" />
  <sodipodi:namedview
     id="base"
     pagecolor="#ffffff"
     bordercolor="#666666"
     borderopacity="1.0"
     inkscape:pageopacity="0.0"
     inkscape:pageshadow="2"
     inkscape:zoom="0.35"
     inkscape:cx="400"
     inkscape:cy="560"
     inkscape:document-units="mm"
     inkscape:current-layer="layer1"
     showgrid="false"
     inkscape:window-width="1366"
     inkscape:window-height="705"
     inkscape:window-x="-8"
     inkscape:window-y="-8"
     inkscape:window-maximized="1" />
  <metadata
     id="metadata5">
    <rdf:RDF>
      <cc:Work
         rdf:about="">
        <dc:format>image/svg+xml</dc:format>
        <dc:type
           rdf:resource="http://purl.org/dc/dcmitype/StillImage" />
        <dc:title></dc:title>
      </cc:Work>
    </rdf:RDF>
  </metadata>
  <g
     inkscape:label="Layer 1"
     inkscape:groupmode="layer"
     id="layer1">
    <path
       sodipodi:type="spiral"
       style="fill:none;fill-rule:evenodd;stroke:#000000;stroke-width:0.26458332"
       id="path16"
       sodipodi:cx="96.761902"
       sodipodi:cy="160.92857"
       sodipodi:expansion="1"
       sodipodi:revolution="2.9332199"
       sodipodi:radius="94.094055"
       sodipodi:argument="-17.752714"
       sodipodi:t0="0"
       d="m 96.761902,160.92857 c 2.202232,4.29326 -4.700727,5.08671 -7.135682,3.66026 -6.59858,-3.8656 -4.810698,-13.33595 -0.184827,-17.93162 8.274598,-8.22058 21.889427,-5.1128 28.727557,3.2906 10.03522,12.33232 5.46349,30.57328 -6.76603,39.52349 -16.30003,11.92923 -39.305275,5.83728 -50.319429,-10.24145 -13.86019,-20.23345 -6.22349,-48.06069 13.716883,-61.11537 24.150464,-15.81097 56.829366,-6.61698 71.911306,17.19231 17.77353,28.05843 7.01506,65.60635 -20.66774,82.70724 C 94.083045,237.75769 51.655081,225.43024 32.540762,193.87086 10.821858,158.0111 24.721277,110.69561 60.159356,89.571751 99.915525,65.873971 152.12383,81.347442 175.25441,120.66577 c 18.12739,30.81372 15.59317,70.33649 -5.16511,99.22707" />
    <path
       id="path20"
       d="m 98.187559,158.3046 c 1.250185,0.9374 2.850371,1.43479 3.503601,2.95343 0.0206,0.2107 0.0882,0.42206 0.0617,0.63209 -0.022,0.17422 -0.0512,0.39758 -0.20278,0.48621 -8.129018,4.75265 -6.924571,5.55668 -12.160207,5.63983 -1.680281,0.15537 -2.661123,-0.74964 -3.272932,-2.2134 -0.4269,-1.43513 -0.408009,-2.94755 -0.418492,-4.4308 0.0016,-1.52217 0.01542,-3.04429 0.02231,-4.56644 0.0061,-1.51331 0.0069,-3.02663 0.0075,-4.53995 2.65e-4,-1.51183 1.93e-4,-3.02367 1.25e-4,-4.5355 0.0013,-1.44574 -0.160624,-2.89034 0.46465,-4.2298 3.399552,-4.55614 8.355862,-6.25494 13.418214,-6.30907 1.428652,-0.14757 2.773152,0.32383 4.162982,0.55582 1.1711,0.34074 2.22243,0.94727 3.36463,1.35096 1.00647,0.59784 2.09515,0.981 3.02161,1.70991 0.93204,0.6276 2.05209,0.84192 3.09869,1.22528 1.22636,0.28436 2.43599,0.43999 3.53663,1.08893 1.0705,0.42076 1.9618,1.10732 2.89885,1.75156 0.84425,0.77593 1.72855,1.48581 2.36606,2.44929 0.67941,0.83313 1.56761,1.42285 2.19983,2.30229 0.76539,0.93277 1.39621,1.96926 2.05441,2.97916 0.699,1.03817 1.13787,2.18205 1.63398,3.31929 0.61149,1.19142 0.73536,2.51876 0.9791,3.81147 0.40104,1.18643 1.20959,2.13257 1.69747,3.28096 0.51496,1.38707 0.61329,2.74771 0.14486,4.1482 -0.57978,1.19618 -1.26091,2.3443 -1.88224,3.52289 -0.69382,0.97163 -1.48467,1.86986 -2.20185,2.82798 -0.88123,0.78546 -1.12394,1.88166 -1.524,2.93563 -0.52086,1.15966 -1.11497,2.29348 -1.75491,3.39398 -0.70745,1.11223 -1.37208,2.24921 -2.06746,3.36927 -0.68474,0.85928 -1.57007,1.55415 -2.43588,2.22642 -3.08947,2.94682 -7.39446,4.42793 -11.00507,6.47495 -0.53322,0.30231 -0.97305,0.51735 -1.56592,0.6927 -1.27491,0.78191 -2.59454,1.31001 -4.06157,1.60433 -1.51921,0.24416 -3.062038,0.2493 -4.596595,0.2592 -1.545185,-0.0374 -2.772923,-0.0727 -4.277116,0.29841 -1.371904,0.22067 -2.661711,0.70117 -4.033372,0.94131 -1.502976,0.22229 -3.024949,0.24302 -4.541128,0.26082 -1.460209,0.0169 -2.920638,-0.0114 -4.380757,0.01 12.197495,-6.61572 9.691336,-7.72093 8.28656,-2.10401 -0.444066,1.77557 -0.873194,3.49128 -1.493922,5.21431 -2.218336,4.5579 -7.966205,9.96108 -13.156825,8.19316 -1.458804,-0.69076 -2.061225,-2.04743 -2.436264,-3.52835 -0.331322,-1.45885 -0.196922,-2.96314 -0.361162,-4.43721 -0.212751,-0.97815 -0.531349,-2.10696 -1.264319,-2.82565 -0.668962,-0.85321 -1.379556,-1.67326 -2.050791,-2.52526 -0.801076,-0.78442 -1.44821,-1.75079 -1.948228,-2.75296 -0.531204,-1.2299 -1.130056,-2.395 -2.016162,-3.40799 -0.649456,-1.09234 -1.507847,-1.9466 -2.403033,-2.82658 -0.828262,-1.0226 -1.329187,-2.29106 -1.772163,-3.52284 -0.232394,-1.17815 -0.551429,-2.27954 -1.10739,-3.3425 -0.466812,-1.13754 -1.159012,-2.18495 -2.018435,-3.06389 -0.886354,-1.01299 -1.694849,-2.07462 -2.200412,-3.32822 -0.440386,-1.27677 -1.109866,-2.44467 -1.533094,-3.7272 -0.404482,-1.42562 -0.455803,-2.91247 -0.496321,-4.38394 0.105066,-1.36066 -0.195371,-2.66768 -0.43098,-3.99447 -0.08202,-1.29159 -0.466775,-2.52061 -0.732856,-3.77861 -0.437883,-1.40129 -0.753549,-2.82292 -0.936535,-4.27879 -0.09519,-1.34212 -0.493292,-2.63228 -0.697455,-3.95971 -0.176824,-1.47991 -0.263234,-2.97508 -0.169156,-4.46307 0.13993,-1.49429 0.664869,-2.87204 1.601407,-4.04002 0.901639,-0.76467 1.758254,-1.5297 2.551501,-2.40409 0.8606,-1.24982 2.031651,-2.22026 3.139646,-3.23958 1.373701,-1.33574 2.814257,-2.60057 4.199975,-3.92285 1.270235,-1.20389 2.374442,-2.56072 3.601275,-3.80608 1.118812,-1.26843 2.3514,-2.42335 3.576331,-3.58714 1.171093,-1.1833 2.325912,-2.36185 3.579122,-3.45842 0.874159,-0.72499 1.75592,-1.44877 2.553282,-2.25865 3.453278,-3.37326 7.760112,-6.51688 12.612602,-7.07862 1.45986,-0.12018 2.926501,-0.1051 4.390036,-0.10223 1.526791,0.12203 2.997369,-0.30287 4.499583,-0.50656 1.520291,-0.18423 3.052943,-0.21136 4.582351,-0.23054 1.43569,0.15995 2.75727,-0.16083 4.14273,-0.44335 1.3846,-0.24354 2.79343,-0.27639 4.1954,-0.30519 1.50483,-0.0206 3.00988,-0.0151 4.51481,-0.0131 1.51329,0.002 3.02658,0.003 4.53987,0.004 1.5121,5.3e-4 3.02421,5.3e-4 4.53631,5.3e-4 1.5119,-10e-6 3.02379,-3e-5 4.53569,-3e-5 1.55447,-0.11537 3.05516,0.31034 4.58334,0.52336 1.4498,0.31037 2.58643,1.13578 3.73328,2.02351 1.35646,0.76703 2.30316,1.91378 2.95451,3.3067 0.5616,1.45523 0.62562,3.01933 0.67193,4.55949 0.0713,1.46527 -0.0812,2.9403 0.0649,4.40055 0.14404,1.27362 1.10634,2.18128 1.85352,3.15684 0.99495,1.02932 2.03135,1.96643 2.69584,3.24901 0.4463,1.16857 0.88262,2.35973 1.52753,3.4354 0.69127,0.92921 1.70978,1.41919 2.57779,2.14779 1.03996,0.63368 2.18385,1.1689 3.34584,1.55223 1.20796,0.36354 2.46526,0.7475 3.51912,1.45954 1.24689,0.75853 2.35448,1.71347 3.53599,2.56414 1.22234,0.94974 1.66196,2.3146 1.90714,3.78013 0.17754,1.49526 0.15604,3.0047 0.15254,4.50779 -0.11993,1.51202 0.17228,2.9876 0.39737,4.47298 0.33995,1.20471 0.63786,2.41853 1.07886,3.59065 0.49692,1.29952 0.62974,2.6832 0.71661,4.05954 0.069,1.50297 0.0617,3.00808 0.0609,4.51224 -0.003,1.51405 -0.006,3.02809 -0.007,4.54215 -0.001,1.51216 -0.001,3.02433 -0.001,4.5365 0.0421,1.59053 0.019,3.16421 -0.34737,4.71737 -0.41483,1.18252 -0.83066,2.36007 -1.29906,3.522 -0.42176,1.20405 -1.24603,2.19944 -2.01666,3.19523 -0.64337,0.94987 -1.65418,1.50493 -2.41708,2.32755 -0.81158,0.81784 -1.55898,1.69204 -2.21184,2.6426 -1.01182,1.18643 -2.05336,2.36408 -3.16328,3.46083 -1.03813,0.83911 -1.96285,1.80945 -2.77126,2.86964 -0.51504,1.04461 -1.06146,2.06378 -1.6516,3.06791 -0.48305,1.05957 -0.92632,2.12681 -1.26948,3.24006 -0.36253,1.21242 -0.9455,2.27774 -1.63599,3.32789 -2.88382,3.41778 -8.19237,5.08826 -11.40201,7.20535 9.28154,-5.35165 12.05196,-7.17349 8.63336,-4.94108 -1.10374,0.53825 -1.7706,1.58865 -2.68068,2.36678 -0.93805,0.81623 -1.98546,1.5035 -3.00451,2.21996 -3.80049,2.63974 -7.8255,4.76011 -11.913,7.04955 -0.85385,0.2547 -0.45845,0.0821 -1.1923,0.50357 -4.68893,2.12001 12.48014,-7.18065 8.10153,-4.67338 -5.1313,2.93827 -6.94145,5.2976 -11.36984,6.03751 -1.51152,0.11488 -2.96389,0.5015 -4.47213,0.6796 -1.68612,0.18185 -3.38264,0.21657 -5.07688,0.23628 -1.5345,0.0107 -3.06905,0.006 -4.60357,0.003 -1.46061,0.0909 -2.97462,-0.20268 -4.40279,0.15288 -3.153972,2.19287 -7.956226,4.50268 8.23584,-4.64224 0.14143,-0.0799 -0.2718,0.18189 -0.38601,0.29739 -0.28305,0.28628 -0.37777,0.54992 -0.55792,0.90691 -0.52088,1.082 -1.20463,2.06947 -1.82617,3.09422 -0.73495,1.09533 -1.54824,2.13735 -2.41507,3.13139 -3.800146,3.72894 -8.510743,6.53489 -13.721071,6.86864 -1.432856,0.20505 -2.784091,-0.26415 -4.178617,-0.49746 -1.389068,-0.19855 -2.794633,-0.22027 -4.195162,-0.24084 -1.5044,-0.0138 -3.008895,-0.009 -4.513334,-0.007 -1.486143,0.12152 -2.78112,-0.64916 -4.171148,-1.01781 -1.453777,-0.36268 -2.840779,-0.87376 -4.333124,-1.0894 -1.446464,-0.16289 -2.904556,-0.16149 -4.358166,-0.16761 -1.397929,0.15612 -2.53338,-0.57839 -3.77476,-1.051 -1.327216,-0.2827 -2.638899,-0.51194 -3.910161,-1.00961 -1.446406,-0.62814 -3.028812,-1.01478 -4.2907,-1.98312 -0.886891,-0.74696 -1.741586,-1.50783 -2.715326,-2.14677 -0.85793,-0.68878 -1.297763,-1.7536 -2.205948,-2.37908 -0.952394,-0.7817 -1.637535,-1.81498 -2.494941,-2.68813 -1.037141,-0.68914 -1.855944,-1.66072 -2.628382,-2.62531 -0.502917,-1.04918 -1.441444,-1.7157 -2.228149,-2.52622 -0.782309,-0.9169 -1.359291,-1.97915 -2.064215,-2.94965 -1.073275,-1.11967 -1.914163,-2.3916 -2.641619,-3.75548 -0.450786,-1.27827 -1.257392,-2.36884 -1.863748,-3.56582 -0.506934,-1.37009 -0.988095,-2.72928 -1.258036,-4.16799 -0.145428,-1.33797 -0.415266,-2.66221 -1.119383,-3.82247 -0.694502,-1.02492 -1.501445,-1.94175 -2.074947,-3.05084 -0.710113,-1.17453 -1.379326,-2.37461 -1.999252,-3.59931 -0.506269,-1.34134 -1.089472,-2.65842 -1.468261,-4.04424 -0.218498,-1.17584 -0.596659,-2.31271 -1.075689,-3.4055 -0.550433,-1.26848 -0.690121,-2.64229 -0.783533,-4.00624 -0.246286,-1.27836 -0.519923,-2.54385 -0.663775,-3.83989 -0.134968,-1.48064 -0.142667,-2.96875 -0.15206,-4.4543 0.123592,-1.36162 -0.180354,-2.66788 -0.41844,-3.99486 -0.108816,-1.47059 -0.468424,-2.89626 -0.736157,-4.34186 -0.443779,-1.40834 -0.632751,-2.87836 -0.995712,-4.30356 -0.466275,-1.28557 -0.591667,-2.64437 -0.833312,-3.97858 -0.371708,-1.48304 -0.578558,-2.99317 -0.697519,-4.515 -0.09624,-1.52238 -0.09769,-3.04854 -0.10147,-4.57331 -5.29e-4,-1.51284 0.0028,-3.02567 0.0044,-4.5385 0.0015,-1.51176 0.0017,-3.02353 0.0019,-4.5353 1.01e-4,-1.51188 6.3e-5,-3.02376 4.8e-5,-4.53565 -0.06275,-1.39747 0.256622,-2.7672 0.565739,-4.12007 0.421531,-1.42136 0.914012,-2.8331 1.513965,-4.19005 0.545794,-1.3513 0.936501,-2.75046 1.552148,-4.07462 0.85192,-1.63932 2.06113,-3.00526 3.503133,-4.14137 4.109801,-3.06127 8.673136,-5.53752 13.287118,-7.73865 -3.031919,1.73715 -6.057212,3.48593 -9.095761,5.21147 -0.170778,0.097 0.321257,-0.22696 0.491333,-0.32517 3.372134,-1.94719 6.731196,-3.91791 10.134304,-5.81044 0.270798,-0.1506 1.514134,-0.5257 1.854787,-0.63946 1.355844,-0.23815 2.580138,-0.8231 3.933619,-1.07901 4.052469,-1.55482 9.975268,-5.345547 -6.487448,4.05991 0.896704,-0.61313 1.770996,-1.24823 2.64973,-1.88653 3.37511,-1.93112 6.72315,-3.91034 10.125332,-5.79336 0.179416,-0.0993 0.407297,-0.06811 0.598572,-0.142041 0.174937,-0.06762 0.651883,-0.371277 0.488992,-0.278318 -3.033903,1.731389 -12.032977,7.094099 -9.102026,5.193619 7.430868,-4.818292 6.687227,-4.485922 10.772425,-6.122042 1.308508,-0.280736 2.49481,-0.846511 3.815144,-1.090703 1.171136,-0.498557 2.361149,-0.980868 3.593303,-1.314153 1.394828,-0.479515 2.933272,-0.616741 4.296003,-1.173493 0.20896,-0.07353 0.415253,-0.155136 0.62688,-0.220599 1.245301,-0.385213 0.08193,0.08508 1.156819,-0.472813 0.175099,-0.09088 0.709277,-0.344342 0.538414,-0.245724 -10.28501,5.936215 -12.063166,7.096787 -8.695658,4.921893 1.030597,-0.669388 2.076376,-1.319366 3.017673,-2.112264 0.917086,-0.626891 1.822707,-1.264015 2.721052,-1.918597 0.888688,-0.825482 1.884952,-1.525069 2.867043,-2.233385 3.260257,-2.813468 7.405632,-4.388541 11.123951,-6.491192 0.543785,-0.307502 0.999268,-0.529873 1.601986,-0.710423 3.961514,-0.969557 11.224332,-5.911802 -6.446898,4.193009 7.738131,-6.563122 20.046796,-9.789298 1.874038,-1.33663 -0.310986,0.144647 0.215612,-0.656892 0.249757,-0.998167 0.04947,-0.49447 -5.3e-4,-0.993876 -7.94e-4,-1.490814 -0.282038,-2.455034 -0.947198,-4.840401 -1.349862,-7.27592 -0.277736,-1.765249 -0.293203,-3.555701 -0.318378,-5.338196 0.3538,-6.399249 3.758578,-5.407467 10.997162,-9.660617 1.352077,0.41448 1.781831,1.832102 2.347312,2.979428 0.458753,1.02095 1.08644,1.981239 1.874345,2.77822 0.839695,0.639493 1.745359,1.151305 2.678192,1.644605 1.052,0.857515 2.409574,0.922885 3.626869,1.372719 1.163296,0.37955 2.356858,0.767596 3.420154,1.381763 1.1512,0.532929 2.38259,0.831146 3.54315,1.35528 1.31311,0.77229 2.68274,1.465559 3.95106,2.307516 1.03644,0.536043 2.00131,1.165275 3.14262,1.455486 1.57,0.623398 3.08149,1.380363 4.68111,1.92772 1.58496,0.292251 2.96854,1.145648 4.48797,1.615009 1.37412,0.462483 2.81099,0.769871 4.18239,1.24162 1.52474,0.346427 2.95455,0.955009 4.40431,1.522979 1.38848,0.7888 2.89627,1.186437 4.46653,1.385975 1.44729,-0.0227 2.81394,0.27028 4.21931,0.55663 1.34714,0.243012 2.71894,0.275193 4.0838,0.303758 1.27417,0.148079 2.31331,0.890696 3.53208,1.221512 1.33551,0.196247 2.6011,0.621009 3.93984,0.827937 1.53826,0.51358 3.15473,0.603351 4.60932,1.338906 1.18726,0.58652 2.3674,1.171043 3.54183,1.78327 1.2014,0.772943 2.30575,1.727602 3.28166,2.771674 0.91885,0.714997 1.41688,1.790933 2.15942,2.661423 0.73988,0.957776 1.49099,1.896626 2.25098,2.83931 0.75183,0.97154 1.4417,2.01291 2.33394,2.86463 0.99237,1.11159 2.11503,2.07469 3.01989,3.26391 0.9388,0.99126 1.75665,2.09183 2.73071,3.04817 0.83063,1.04834 1.68634,2.07426 2.50309,3.13383 0.95444,1.22517 1.69788,2.61012 2.23879,4.06275 0.62334,1.75848 1.31004,3.49477 1.9722,5.2397 0.63507,1.77911 1.16475,3.58368 1.45287,5.45144 0.23566,1.78516 0.27937,3.58699 0.30387,5.38502 0.0125,1.54339 0.005,3.08686 0.002,4.63027 0.0434,1.45379 -0.0946,2.91866 0.0582,4.36672 0.28804,1.31626 0.4846,2.64293 0.59314,3.98536 0.11707,1.38384 0.56756,2.67727 0.99344,3.98484 0.36003,1.32108 0.75387,2.62994 1.26857,3.89871 0.34717,1.10386 0.86871,2.08648 1.78753,2.80284 1.33969,0.5568 2.04601,1.63604 2.49595,2.95891 0.3696,1.44586 0.36563,2.94869 0.37938,4.43092 0.002,1.51775 -0.009,3.03549 -0.015,4.55322 -0.005,1.51295 -0.006,3.02591 -0.007,4.53886 -0.10932,1.44299 0.0116,2.75625 0.46848,4.11753 0.55359,1.26959 1.26338,2.46104 1.83081,3.72206 0.5441,1.35524 0.63924,2.81514 0.70519,4.25705 0.0453,1.50933 0.0333,3.01964 0.0289,4.52943 -0.005,1.51338 -0.007,3.02676 -0.009,4.54014 0.10189,1.58915 -0.16698,3.14435 -0.41715,4.70438 -0.25189,1.44189 -0.23775,2.90867 -0.37276,4.36119 -0.13737,1.24862 -0.60307,2.39688 -1.05644,3.55387 -0.48183,1.0191 -1.06885,1.9868 -1.9708,2.67921 -1.08287,0.81653 -1.89649,1.90631 -2.93035,2.77456 -0.94212,0.89481 -1.96025,1.70479 -2.8972,2.60431 -0.92594,0.82826 -1.73957,1.77024 -2.67748,2.58713 -6.06638,-2.78952 -7.18327,4.86083 -11.21163,6.37289 -0.59848,0.22464 -1.15877,0.27765 -1.73251,0.57142 3.06239,-1.73709 6.11786,-3.48644 9.18716,-5.21128 0.15711,-0.0883 -0.30047,0.19908 -0.44919,0.30085 -0.44311,0.30324 -0.9004,0.64226 -1.36325,0.9113 -3.36113,1.9537 -6.74124,3.87457 -10.11185,5.81185 -0.19759,0.0491 -0.39518,0.0982 -0.59277,0.14736 0,0 8.8434,-6.91267 8.8434,-6.91267 v 0 c 0.17072,-0.0859 0.34144,-0.17189 0.51217,-0.25783 -3.03775,1.76686 -6.07444,3.53554 -9.11325,5.30058 -0.15554,0.0903 0.31864,-0.16971 0.4634,-0.27648 0.44543,-0.32853 0.86901,-0.64832 1.35189,-0.92984 3.35616,-1.95659 6.73129,-3.88043 10.09693,-5.82065 3.99316,-1.1833 10.45416,-6.41364 -6.32528,4.09017 1.10817,-0.56475 1.91564,-1.54021 2.72097,-2.46921 1.03099,-0.78588 1.91403,-1.76162 2.91665,-2.58508 1.40186,-1.3411 -0.47353,0.40081 1.03323,-0.83055 0.70414,-0.57544 1.11257,-1.43677 1.86025,-1.97552 1.0175,-0.91147 -0.22049,0.13088 0.87324,-0.59088 0.57021,-0.37628 0.94599,-1.10361 1.2817,-1.66971 0.63379,-0.95986 0.95155,-2.13936 1.22422,-3.24588 0.34077,-1.41937 0.10284,-2.92398 0.38908,-4.36172 0.2233,-1.5173 0.63115,-3.00677 0.49525,-4.55357 10e-4,-1.51412 0.003,-3.02825 0.008,-4.54237 0.005,-1.49514 0.016,-2.99053 -0.0123,-4.48551 -0.0411,-1.30465 -0.0751,-2.63488 -0.52063,-3.8772 -0.55851,-1.29648 -1.28151,-2.51773 -1.85284,-3.81034 -0.60724,-1.66415 -0.77275,-2.65765 -0.64646,-4.45031 2.6e-4,-1.51408 7.9e-4,-3.02817 0.005,-4.54225 0.005,-1.51434 0.0149,-3.02866 0.0188,-4.54301 -0.004,-1.37506 0.0194,-2.76542 -0.24224,-4.12124 -0.34945,-1.20952 -1.10202,-1.8081 -2.18197,-2.42278 -0.979,-0.90273 -1.67979,-1.97858 -2.05615,-3.26733 -0.51892,-1.2957 -0.94749,-2.6236 -1.30842,-3.97176 -0.43548,-1.39474 -0.9198,-2.76183 -1.10938,-4.22175 -0.0879,-1.32165 -0.2497,-2.63283 -0.56744,-3.92141 -0.23839,-1.48895 -0.0669,-3.00733 -0.11395,-4.51089 0.004,-1.54166 0.0116,-3.0833 0.0135,-4.62497 -0.005,-1.75495 -0.0123,-3.51435 -0.20869,-5.26062 -0.25219,-1.79961 -0.73417,-3.52972 -1.35033,-5.23879 -0.64562,-1.75412 -1.31742,-3.49629 -1.99762,-5.2367 -0.47821,-1.34943 -1.1811,-2.63147 -2.07646,-3.75 -0.8072,-1.0168 -1.62111,-2.02577 -2.45142,-3.02294 -0.96003,-1.02582 -1.84615,-2.11874 -2.77941,-3.1684 -0.88984,-1.13229 -1.99088,-2.06202 -2.94687,-3.13651 -0.89244,-0.91669 -1.66977,-1.93856 -2.42398,-2.96995 -0.73542,-0.95459 -1.517,-1.85944 -2.25067,-2.8153 -0.69125,-0.87526 -1.23182,-1.87308 -2.10126,-2.5953 -0.91508,-0.933857 -1.89588,-1.848029 -3.06739,-2.448093 -1.18,-0.560184 -2.30007,-1.231988 -3.50122,-1.7496 -1.43405,-0.530487 -2.97866,-0.716383 -4.4523,-1.116693 -1.36032,-0.267059 -2.70529,-0.614359 -4.05246,-0.935691 -1.09688,-0.401007 -2.12435,-0.996817 -3.33099,-0.979196 -1.41198,-0.05588 -2.82737,-0.143214 -4.21073,-0.452496 -1.38174,-0.29052 -2.77235,-0.358542 -4.17159,-0.530582 -1.60896,-0.314261 -3.12547,-0.864536 -4.59686,-1.589497 -1.42813,-0.570082 -2.88454,-1.040342 -4.36902,-1.441935 -1.41466,-0.382579 -2.79677,-0.851733 -4.19749,-1.281157 -1.48472,-0.572323 -2.93252,-1.234721 -4.47906,-1.641404 -1.57021,-0.610946 -3.09515,-1.340265 -4.70069,-1.859079 -1.15815,-0.438724 -2.225765,-1.077502 -3.293179,-1.700045 -1.254381,-0.756518 -2.489972,-1.554745 -3.829796,-2.15473 -1.214599,-0.454533 -2.481535,-0.785662 -3.623627,-1.41329 -1.079606,-0.475499 -2.170753,-0.915432 -3.30586,-1.242568 -1.31975,-0.367255 -2.61679,-0.754534 -3.762203,-1.540949 -1.002411,-0.582129 -2.024671,-1.129565 -2.867287,-1.943114 -0.814483,-0.919554 -1.533102,-1.935591 -2.024171,-3.066393 -0.232249,-0.466376 -0.485908,-1.524649 -1.027174,-1.763017 -0.133776,-0.05891 -0.27474,0.364688 -0.348414,0.266287 3.044563,-1.812327 6.088954,-3.624942 9.133689,-5.436976 0.16668,-0.0992 -0.351967,0.172556 -0.499517,0.298458 -0.779849,0.665441 -0.748493,1.768338 -0.907616,2.690445 0.008,1.73795 0.0222,3.4802 0.230129,5.208228 0.336955,2.497529 0.939835,4.94453 1.307904,7.437006 0.621097,8.477853 0.155438,-4.532405 -9.727392,9.410398 -2.03149,2.866046 6.079098,-3.522713 9.11172,-5.295945 0.307962,-0.18007 -1.287303,0.645404 -0.893421,0.589217 -4.91296,2.895761 -7.999717,5.387837 -12.81825,6.901875 -7.208644,3.404169 12.235884,-7.197383 6.507279,-3.93968 -0.852863,0.86469 -1.923288,1.438064 -2.869351,2.1952 -0.736116,0.834681 -1.716479,1.496267 -2.694699,2.010051 -1.007406,0.715637 -1.888093,1.593405 -2.972938,2.207164 -4.169796,2.605749 -8.199884,5.609773 -12.952502,6.947041 -1.447289,0.33686 -2.87088,0.75112 -4.296135,1.17036 -1.210003,0.43606 -2.404634,0.93421 -3.650197,1.25819 -1.239173,0.36619 -2.47628,0.78054 -3.667291,1.27558 -4.648838,2.60636 15.847597,-8.881492 8.459978,-4.907072 -3.437869,1.849512 -6.754339,3.916732 -10.155812,5.832362 -0.33619,0.18933 -1.400334,0.64267 -1.067541,0.44743 3.030247,-1.77777 6.075897,-3.52915 9.113846,-5.29372 -0.954543,0.54134 -1.804461,1.19254 -2.655618,1.8708 -3.948898,2.28983 -8.191227,5.61804 -12.887428,6.83227 -1.288788,0.37246 -2.563177,0.79433 -3.847134,1.18038 -0.418777,0.16814 -0.846516,0.31442 -1.260057,0.49506 -0.179697,0.0785 -0.69555,0.36185 -0.526331,0.26277 3.022397,-1.76963 6.055855,-3.5203 9.086922,-5.27504 0.169722,-0.0983 -0.33518,0.20368 -0.502769,0.30553 -3.369064,1.96063 -6.738128,3.92126 -10.107192,5.8819 -3.452704,1.8489 -7.223709,4.17476 7.754022,-4.58844 1.730904,-1.01272 -3.699216,1.98121 -1.91125,1.15521 -1.396788,1.13327 -2.79151,2.06555 -3.686902,3.71228 -0.729705,1.25618 -1.138616,2.62049 -1.55625,4.00415 -0.594963,1.31974 -1.163791,2.64893 -1.58668,4.03733 -0.40463,1.22464 -0.648044,2.57537 -0.710705,3.85571 1.6e-5,1.51191 5e-5,3.02382 0,4.53574 -9.5e-5,1.51207 -2.07e-4,3.02415 -0.0013,4.53622 -0.0013,1.51205 -0.0041,3.02411 -0.0057,4.53616 5.3e-4,1.50185 -0.0036,3.00459 0.0666,4.50519 0.09042,1.47545 0.250389,2.94619 0.633767,4.37859 0.29899,1.30042 0.333515,2.65653 0.809726,3.92 0.399338,1.44753 0.510254,2.96959 1.032147,4.39147 0.245417,1.44931 0.654209,2.86608 0.751285,4.33777 0.234124,1.38696 0.624117,2.74749 0.488023,4.17015 0.0054,1.45109 0.0066,2.90406 0.113083,4.35206 0.122844,1.31474 0.372857,2.60004 0.681162,3.88352 0.06422,1.23439 0.138454,2.48911 0.619564,3.64489 0.502894,1.1454 0.937514,2.3332 1.147284,3.57082 0.32163,1.32174 0.887087,2.56212 1.334894,3.84241 0.619935,1.22259 1.32106,2.40083 2.011911,3.58413 0.556982,1.08974 1.425929,1.94289 2.048999,2.99029 0.740759,1.28089 1.171342,2.70911 1.300165,4.18502 0.214006,1.34349 0.646266,2.60001 1.119921,3.87103 0.588864,1.19503 1.390739,2.28309 1.817933,3.56027 0.702979,1.32873 1.559502,2.52117 2.59448,3.61335 0.653939,0.93261 1.236329,1.91482 1.983074,2.78147 0.836533,0.80996 1.725051,1.58392 2.27458,2.63278 0.777063,0.94086 1.618819,1.80748 2.589525,2.55191 0.789874,0.86718 1.490765,1.8246 2.42385,2.54955 0.797216,0.71083 1.33626,1.6418 2.163416,2.31691 0.932765,0.68662 1.80253,1.43593 2.699634,2.16318 1.255244,0.78744 2.734344,1.17843 4.100986,1.73045 1.316919,0.38994 2.686513,0.55319 3.973586,1.03889 1.138479,0.49009 2.237669,0.84683 3.506449,0.72411 1.494018,0.0228 2.995766,0.0503 4.470747,0.31475 1.490549,0.30975 2.910988,0.84372 4.390935,1.1961 1.313688,0.41282 2.582547,0.90054 3.992615,0.75497 1.510305,-0.001 3.020822,-0.006 4.530884,0.026 1.442188,0.0423 2.88893,0.10465 4.310113,0.37363 1.326483,0.25522 2.624817,0.50254 3.98078,0.25207 0.713174,-0.10308 1.411817,-0.2096 2.083152,-0.48797 0.21524,-0.0892 0.8271,-0.42855 0.62669,-0.30967 -1.739072,1.03162 -12.4211,7.27623 -8.324102,4.88104 0.981705,-0.82921 1.722684,-1.91804 2.474688,-2.94279 0.737468,-0.89166 1.288804,-1.98005 1.863656,-2.97209 0.17635,-0.29519 0.566804,-1.50259 0.761918,-1.62497 0.785884,-0.4929 7.22794,-5.56868 11.17434,-6.23691 1.49256,-0.0516 2.98659,-0.0102 4.47982,-0.0202 1.52863,0.002 3.05738,0.008 4.58589,-0.0152 1.66473,-0.0356 3.33252,-0.0952 4.9826,-0.33578 1.48455,-0.23831 2.96142,-0.53549 4.43865,-0.80664 0.37293,-0.1291 1.43589,-0.64891 1.09524,-0.44964 -19.39245,11.34407 -3.79997,1.9956 2.03062,-1.09749 3.47313,-1.41459 8.69177,-4.87473 -7.84071,4.70902 -1.32202,0.76637 2.89969,-1.98439 1.75965,-1.1489 1.00345,-0.7264 1.95129,-1.49643 3.03989,-2.07779 1.21207,-1.22133 -0.36715,0.31137 0.93061,-0.76535 0.63776,-0.52913 0.93768,-1.3685 1.65284,-1.83063 4.21677,-2.17029 -4.92603,2.54666 10.57593,-6.1425 3.0546,-1.71216 -6.0366,3.55076 -9.06068,5.31627 -1.75029,1.02185 3.12946,-2.09838 1.4227,-1.0513 0.8268,-0.86733 1.42404,-1.87342 1.76218,-3.02251 0.27684,-0.56196 0.34735,-1.12711 0.56231,-1.71212 0.0664,-0.18078 0.15239,-0.35376 0.22858,-0.53065 0.0886,-0.15569 0.19848,-0.30105 0.26573,-0.46707 0.0797,-0.19681 0.11463,-0.40893 0.17194,-0.61339 0.45422,-1.11132 1.30408,-1.99462 1.61823,-3.17454 0.63257,-1.24718 1.64661,-2.25021 2.65222,-3.20818 1.26147,-0.8824 2.11008,-2.18367 3.23445,-3.22857 0.53537,-0.61222 0.8761,-1.3572 1.42411,-1.9622 0.1164,-0.1285 0.27707,-0.21209 0.39194,-0.34195 0.12532,-0.14168 0.21542,-0.31097 0.32314,-0.46646 1.14994,-1.05007 -0.38545,0.40446 0.73055,-0.84122 0.51184,-0.57131 1.38238,-0.67637 1.71627,-1.44502 0.88168,-0.79546 1.52073,-1.81665 2.19953,-2.78382 0.3776,-1.19468 0.93652,-2.31379 1.32382,-3.50761 0.63695,-1.39061 0.53593,-2.90117 0.51808,-4.39921 4e-5,-1.51247 6e-5,-3.02494 0.001,-4.53741 0.001,-1.51409 0.003,-3.02818 0.007,-4.54227 0.002,-1.48408 0.0105,-2.96872 -0.0389,-4.45221 -0.0607,-1.26549 -0.13666,-2.54619 -0.57568,-3.74793 -0.47062,-1.2496 -0.78485,-2.53636 -1.16455,-3.81709 -0.21871,-1.53671 -0.59908,-3.05736 -0.47587,-4.62055 0.007,-1.45081 0.0309,-2.90514 -0.0872,-4.35249 -0.15105,-1.20677 -0.41024,-2.2801 -1.46214,-3.02203 -1.13001,-0.8662 -2.25598,-1.74581 -3.48846,-2.46468 -1.07971,-0.55409 -2.26764,-0.88028 -3.40858,-1.28645 -1.22695,-0.51102 -2.47916,-1.0364 -3.54033,-1.84809 -1.00403,-0.75998 -2.07262,-1.41906 -2.78318,-2.49842 -0.64457,-1.10172 -1.16253,-2.28508 -1.56563,-3.4957 -0.60523,-1.21855 -1.70427,-2.04594 -2.56484,-3.08018 -0.88215,-1.12318 -1.96148,-2.18922 -2.16088,-3.66503 -0.23085,-1.49134 -0.0466,-3.0086 -0.10568,-4.51351 -0.0229,-1.39416 -0.0259,-2.81787 -0.46571,-4.15645 -0.55498,-1.25859 -1.49777,-2.11386 -2.66769,-2.82352 -1.05071,-0.75545 -2.09468,-1.41397 -3.41559,-1.57175 -1.4901,-0.23763 -2.97015,-0.49734 -4.48805,-0.38732 -1.5119,1e-5 -3.0238,3e-5 -4.5357,0 -1.5122,-6e-5 -3.02439,-1.3e-4 -4.53659,-10e-4 -1.5133,-0.001 -3.02661,-0.003 -4.53992,-0.004 -1.49902,9e-5 -2.99849,-0.004 -4.496892,0.0457 -1.375407,0.0608 -2.752169,0.15867 -4.098633,0.4649 -1.405639,0.27795 -2.813871,0.27844 -4.244137,0.2694 -1.503471,0.0401 -3.009199,0.106 -4.496895,0.34297 -1.525916,0.24136 -3.043536,0.48429 -4.596421,0.37941 -1.4293,0.0113 -2.873552,0.002 -4.280585,0.28635 -0.386046,0.10952 -1.479047,0.60946 -1.133531,0.40539 3.025479,-1.78691 6.074259,-3.53406 9.11139,-5.30109 -0.51513,0.23561 -0.937712,0.4677 -1.241568,0.97361 -0.915275,0.69739 -1.649155,1.61328 -2.552927,2.33292 -1.380744,0.95449 -2.531854,2.14271 -3.666128,3.37224 -1.210318,1.16466 -2.505329,2.26316 -3.573192,3.56033 -1.255752,1.23035 -2.398504,2.53766 -3.60353,3.81473 -1.349875,1.37108 -2.842945,2.57784 -4.191378,3.9539 -1.060593,0.99689 -2.235663,1.91537 -3.148886,3.04183 -0.677132,1.03006 -1.497544,1.87124 -2.496256,2.5889 -1.152377,0.74899 -1.732815,1.97629 -1.947492,3.31623 -0.232254,1.38642 -0.04877,2.80845 0.05376,4.20298 0.180367,1.34552 0.596945,2.64293 0.699498,3.99512 0.147907,1.42824 0.417933,2.82991 0.909696,4.1841 0.247181,1.27414 0.689813,2.50238 0.746376,3.80915 0.230246,1.38029 0.615537,2.73448 0.492178,4.14945 0.02437,1.37006 0.0396,2.75571 0.361841,4.09524 0.383064,1.2711 1.060667,2.41204 1.50544,3.66122 0.417129,1.13108 1.191641,2.06087 1.973373,2.96524 0.887323,0.98505 1.690849,2.07739 2.193846,3.31186 0.580927,1.11068 0.998223,2.24239 1.179034,3.49044 0.361349,1.07289 0.785071,2.19645 1.504973,3.0753 0.935009,0.89495 1.762377,1.83477 2.458742,2.9292 0.894397,1.11094 1.589846,2.32618 2.168001,3.62794 0.458819,0.94061 1.102365,1.79063 1.829961,2.53981 0.673645,0.82372 1.338768,1.65412 2.018827,2.47102 0.801515,0.9676 1.304848,2.19792 1.568611,3.42032 0.229452,1.43831 0.05242,2.90813 0.30857,4.34856 0.225671,1.08014 0.550058,2.17953 1.78312,2.40019 0.575159,-0.0193 0.302011,0.0469 0.819883,-0.1968 -2.994954,1.76706 -5.989908,3.53411 -8.984861,5.30117 -0.226256,0.13372 0.478787,-0.22866 0.682635,-0.39455 0.725356,-0.59029 0.905553,-1.03061 1.415183,-1.82985 0.994708,-2.25637 1.521806,-4.51081 1.9539,-6.93306 0.08063,-0.45201 -0.127659,-1.08819 0.245769,-1.35534 3.193491,-2.28464 6.737876,-4.03396 10.106816,-6.05094 1.445508,0.0292 2.89193,0.01 4.337449,-0.01 1.481156,-0.0428 2.969781,-0.10589 4.421666,-0.4282 1.350532,-0.32387 2.677774,-0.7378 4.055844,-0.94123 1.44976,-0.20948 2.91691,-0.0743 4.37722,-0.12617 1.48897,-0.0353 2.99237,-0.0811 4.43965,-0.46987 1.40289,-0.44014 2.65119,-1.17772 4.00985,-1.72552 7.08837,-3.36069 -12.16877,7.14733 -6.65561,4.02843 0.71316,-0.8136 1.64492,-1.43233 2.51496,-2.06246 0.89986,-0.95984 1.30025,-2.23801 2.16111,-3.23297 0.57299,-1.0922 1.15974,-2.18266 1.79655,-3.23028 0.13074,-0.35802 0.31917,-0.69433 0.43514,-1.0574 0.25082,-0.78531 0.29615,-1.63048 0.91246,-2.26031 0.87125,-0.80131 1.34223,-1.93365 2.30334,-2.65083 0.7532,-1.05225 1.10321,-2.34539 1.96587,-3.3296 0.60032,-1.39599 0.73588,-1.85276 0.23428,-3.39206 -0.48575,-1.21722 -1.38904,-2.20102 -1.77894,-3.46772 -0.28498,-1.20445 -0.308,-2.47598 -0.89076,-3.59913 -0.47772,-1.07707 -0.85729,-2.18173 -1.53524,-3.16406 -0.64857,-0.99124 -1.27996,-1.99848 -2.03537,-2.9132 -0.66107,-0.85557 -1.62733,-1.42899 -2.22417,-2.34514 -0.57542,-0.82884 -1.39774,-1.44514 -2.15416,-2.10192 -0.881,-0.63748 -1.81603,-1.16281 -2.80589,-1.61513 -1.12341,-0.44936 -2.32907,-0.55943 -3.46113,-0.98464 -1.12776,-0.41834 -2.32474,-0.68202 -3.27259,-1.47425 -0.908326,-0.57857 -1.900066,-1.00163 -2.862068,-1.48069 -1.053136,-0.45347 -2.098481,-0.94381 -3.229123,-1.1788 -1.331825,-0.26191 -2.642753,-0.5297 -4.011789,-0.36894 -0.686766,0.04 -1.3867,0.0641 -2.055014,0.2471 -0.19554,0.0535 -0.746916,0.30831 -0.572854,0.20436 8.810468,-5.26164 12.501788,-6.2596 8.58398,-5.15123 -1.238047,0.75611 -0.776817,2.29563 -0.831157,3.54543 7.1e-5,1.51196 2.25e-4,3.02393 2.4e-5,4.53589 -2.65e-4,1.51471 -7.94e-4,3.02942 -0.006,4.54412 -0.006,1.51939 -0.0176,3.03873 -0.02572,4.55811 5.29e-4,1.34986 -0.03701,2.72093 0.249804,4.04736 0.462505,1.27923 1.284174,1.11547 2.504958,1.05623 0.446866,-0.0334 0.881941,-0.051 1.322483,-0.13997 0.182335,-0.0368 0.698016,-0.24296 0.538086,-0.14797 -13.417084,7.96874 -12.331517,4.13462 -8.490402,5.54823 0.159702,-0.57193 -2.660002,-1.98591 -3.112678,-2.37507 0,0 9.506585,-5.97134 9.506585,-5.97134 z"
       inkscape:connector-curvature="0"
       style="stroke-width:0.26458332" />
    <path
       id="path22"
       d="m 22.373876,127.9249 c 0.85666,-1.72103 1.472126,-3.55392 2.134764,-5.35703 0.405951,-1.2813 0.807689,-2.57548 1.375207,-3.7961 0.48114,-1.01568 1.18533,-1.91154 1.979876,-2.69983 3.790881,0.0367 8.483372,-5.6819 12.907137,-7.11365 0.183195,-0.11058 0.360756,-0.23109 0.549584,-0.33176 1.918743,-1.02292 -0.785545,0.46991 1.194123,-0.47477 0.178697,-0.0853 0.66883,-0.42362 0.496745,-0.32569 -8.822936,5.02099 -11.993502,7.16182 -8.521073,4.83715 0.988269,-0.65181 1.908685,-1.41425 2.746613,-2.25015 0.780373,-0.74284 1.569029,-1.48314 2.300735,-2.27505 0.823931,-0.79711 1.498166,-1.74507 2.200245,-2.65353 0.818698,-0.93825 1.594104,-1.91713 2.472812,-2.8009 0.787096,-0.85952 1.708002,-1.58193 2.382285,-2.53757 0.617873,-0.902922 1.339178,-1.719497 2.037715,-2.558142 0.834644,-0.812816 1.568667,-1.723591 2.434359,-2.503924 3.887177,-2.992051 8.286668,-5.202372 12.554125,-7.619542 1.362604,-0.539737 2.796624,-0.808971 4.143785,-1.400746 1.431467,-0.395238 2.792095,-0.980025 4.217765,-1.385039 1.379342,-0.255711 2.775286,-0.305837 4.044093,-0.951436 0.574405,-0.374618 1.281136,-0.403048 1.902902,-0.632209 0.582165,-0.214563 1.088411,-0.513728 1.694846,-0.69306 1.098833,-0.252883 2.355443,-0.402415 3.337788,-0.990975 -14.387769,11.974237 -5.367115,5.608364 -11.034006,6.3892 -0.421071,0.05802 -0.821166,0.221483 -1.236917,0.309907 -1.455224,0.493741 -2.884678,0.947147 -4.22263,1.716336 2.975184,-1.703597 5.946745,-3.413541 8.925554,-5.11079 0.228259,-0.130058 -0.445516,0.27881 -0.673661,0.40907 -3.424383,1.955154 -6.815828,3.970001 -10.283655,5.847019 -3.03144,1.640816 11.923887,-6.921796 8.974169,-5.13824 -0.164415,0.09941 -25.042278,14.428251 -1.207585,0.699222 -1.609918,0.875081 -2.7965,2.223664 -3.899627,3.652256 -0.987039,1.320964 -1.614163,2.858209 -2.569054,4.199054 -1.016088,1.064659 -1.766946,2.330238 -2.735414,3.431915 -0.95287,0.825548 -1.779812,1.74407 -2.600346,2.693454 -0.827656,0.89769 -1.850414,1.57496 -2.605529,2.53853 -0.720156,0.94571 -1.344925,1.95509 -2.038437,2.92548 -0.755648,0.94831 -1.485795,1.9146 -2.482289,2.61859 -4.399497,2.87068 -8.899991,5.66188 -13.645036,7.90967 -1.411981,0.42665 -2.714607,1.08479 -4.166304,1.37929 -1.265791,0.19997 -2.462001,0.73 -3.673388,1.14677 -0.678849,0.61527 -1.570609,0.72507 -2.379443,1.04193 -0.374435,0.14669 -0.714446,0.37118 -1.084765,0.52797 3.051389,-1.73681 6.099564,-3.47928 9.154173,-5.21042 0.162883,-0.0923 -0.315558,0.20196 -0.478718,0.29378 -3.359327,1.89056 -6.711445,3.79423 -10.088375,5.65316 -0.0863,0.0475 -0.209386,0.002 -0.289446,0.0596 -0.03739,0.0268 -0.02175,0.16506 0.01487,0.13722 3.085174,-2.34436 6.122331,-4.75124 9.183496,-7.12686 0.488625,-0.28373 1.060466,-0.40387 1.564016,-0.64376 0.212365,-0.10117 0.805344,-0.4864 0.600922,-0.37001 -2.986016,1.7001 -11.890622,6.89222 -8.946036,5.12133 3.398588,-2.04392 6.872208,-3.96041 10.308309,-5.94061 0.296344,-0.13978 1.171967,-0.5846 0.889032,-0.41935 -13.15435,7.68273 -10.436778,5.78379 1.763273,-0.97147 0.823812,-0.45615 1.818132,-0.61796 2.679115,-1.00843 1.563773,-0.71174 3.112257,-1.40518 4.681493,-2.11367 1.433118,-0.60771 3.028397,-0.73462 4.321217,-1.64041 -0.38704,0.0995 1.438614,-0.71156 1.091676,-0.50937 -3.03353,1.76788 -12.104931,7.11454 -9.148633,5.22034 3.270899,-2.09579 6.732609,-3.87768 10.093556,-5.82579 3.047656,-1.76651 -6.089042,3.54414 -9.153687,5.28101 -0.170465,0.0966 0.31101,-0.2384 0.466516,-0.35761 1.036408,-0.92901 1.904021,-2.03314 2.718406,-3.15729 0.894406,-1.32511 1.625208,-2.74978 2.354435,-4.1696 0.732694,-1.35037 1.282705,-2.78407 1.985187,-4.148912 0.830424,-1.317135 1.985272,-2.360353 3.268588,-3.220172 3.739581,-2.580153 1.496812,-1.057095 10.790211,-6.229424 3.043013,-1.693617 -12.064873,6.963097 -9.066133,5.192268 3.356364,-1.982015 6.740964,-3.916355 10.139095,-5.825879 2.12371,-1.193385 -0.82146,0.764836 1.062128,-0.526913 4.310364,-2.171872 -11.445939,6.558198 -8.561115,4.959835 4.590436,-2.543371 7.544326,-5.549678 12.236402,-6.337303 1.444691,-0.284671 2.953573,0.0055 4.375023,-0.3547 1.272151,-0.263219 2.521847,-0.517398 3.731472,-1.004568 0.08567,-0.07511 0.351657,-0.288769 0.257018,-0.225327 -15.682647,10.51329 -5.213469,4.706549 -11.856378,6.947612 -1.70543,0.474501 -3.434966,0.803486 -5.072613,1.49171 -1.256726,0.463979 -0.360704,0.07641 -1.461526,0.694007 -0.213001,0.119499 -0.861836,0.459637 -0.650362,0.337453 30.007139,-17.337463 -22.327076,12.843673 7.635571,-4.394174 -26.941973,15.424837 -1.737151,0.975424 -1.304245,0.729118 0.201525,-0.114663 -0.391295,0.248846 -0.587008,0.373171 -0.515188,0.327279 -0.990864,0.689443 -1.481563,1.051671 -0.881505,0.802558 -1.807607,1.559864 -2.62436,2.429949 -0.83916,1.06448 -1.631291,2.152957 -2.554398,3.147814 -0.80004,1.011428 -1.874904,1.737138 -2.898397,2.500244 -0.937218,0.76089 -1.751245,1.65403 -2.645677,2.46017 -0.638527,0.34504 -1.138796,0.93114 -1.756466,1.29797 -5.365379,3.18638 -20.447666,11.86705 -0.923258,0.60244 -0.928828,0.53821 -1.72915,1.23999 -2.557298,1.91348 -3.366305,3.2928 -8.507886,5.31297 -12.135364,7.52833 -2.923455,1.78541 5.933985,-3.42415 8.900978,-5.13622 -3.428484,1.95678 -6.833637,3.95502 -10.285452,5.87034 -3.006003,1.66795 5.961197,-3.4259 8.947898,-5.12817 0.206116,-0.11748 -0.399785,0.25593 -0.605795,0.37359 -2.555589,1.45956 -7.6102,4.81122 -11.536264,6.42622 -1.108808,0.88853 -2.440382,1.16017 -3.814064,1.31775 -1.462784,-0.15942 -2.562622,0.61228 -3.872175,1.07013 -3.896121,1.88523 2.728759,-1.30706 8.931204,-5.13223 0.07959,-0.0491 -0.501341,-0.5283 -0.523931,-1.17325 -0.0038,-0.10722 0.200081,-0.0786 0.295405,-0.12783 0.145695,-0.0753 0.284363,-0.16342 0.426545,-0.24513 1.34039,-0.53089 2.645754,-1.11815 3.955039,-1.7187 1.1557,-0.43614 2.217428,-1.06785 3.320204,-1.61793 3.712977,-1.24171 7.92095,-5.59841 -8.505796,5.04658 -0.588203,0.38117 1.34887,0.84605 0.02318,0.97578 -1.195697,0.51161 -2.374706,1.01086 -3.553192,1.55956 16.704825,-9.67228 9.812708,-5.73915 6.204889,-3.34311 -0.133932,0.11069 -0.276037,0.21218 -0.401796,0.33208 -1.42435,1.35797 2.878841,-2.46857 -0.833962,-0.93826 -6.154885,2.53686 -12.443509,7.79797 -9.196146,5.09777 3.529766,-2.52375 7.014789,-4.22102 11.15523,-6.47448 3.055625,-1.66304 -6.037024,3.45898 -9.059243,5.18198 -0.344925,0.19665 0.664588,-0.43765 0.969729,-0.69168 0.404577,-0.32599 0.56474,-0.47922 1.021874,-0.7455 3.385616,-1.97209 6.819752,-3.86161 10.17597,-5.88332 2.976719,-1.79312 -6.017987,3.47692 -9.037272,5.19739 -0.186947,0.10653 0.352636,-0.24766 0.53916,-0.35492 3.38746,-1.94797 6.787814,-3.87344 10.181719,-5.81016 1.609238,-0.85686 -0.451006,0.21371 1.258255,-0.58676 0.224812,-0.10528 0.873131,-0.4727 0.657892,-0.34901 -2.98727,1.71659 -5.973921,3.4344 -8.974328,5.12793 -0.206756,0.1167 0.386758,-0.27662 0.591691,-0.3965 3.385378,-1.98027 6.785348,-3.9355 10.178023,-5.90325 -0.829442,0.79953 2.980338,-1.52249 1.77918,-0.82625 -15.4183,8.93708 -11.593737,6.66045 -8.306133,4.70639 0.06306,-0.005 0.143504,-0.0601 0.18919,-0.0163 0.881237,0.84514 -1.270712,0.94568 -1.57511,0.98679 -0.204898,0.12907 -0.400888,0.27351 -0.614695,0.38722 -0.484466,0.25766 -1.913052,1.07597 -1.43564,0.80547 15.209181,-8.61743 10.445475,-6.41328 7.321526,-3.99247 -1.057066,0.96365 -2.243542,1.76194 -3.319007,2.70163 -3.520914,3.16661 -7.997085,5.1061 -12.077859,7.38242 -0.503097,0.28064 -0.917956,0.24158 -1.461611,0.26841 -1.420426,-0.34821 -1.952858,-1.57782 -1.55554,-2.9035 0.31357,-0.49765 0.320128,-0.60071 0.793108,-0.97405 0.171556,-0.13541 1.089629,-0.68935 1.251241,-0.78299 3.418393,-1.98046 6.872452,-3.90012 10.262614,-5.92853 2.944209,-1.76159 -5.949717,3.41864 -8.924576,5.12796 3.783536,-2.49192 2.105041,-1.40445 10.826218,-6.26107 0.798026,-0.44441 1.852253,-0.35498 2.701581,-0.67732 0.199202,-0.0628 0.396155,-0.13321 0.597609,-0.18833 0.539867,-0.14774 0.724932,-0.11011 1.221629,-0.39992 0.184904,-0.10788 0.694857,-0.4976 0.508445,-0.39234 -6.025354,3.40194 -12.235069,7.12032 -8.447128,4.85475 1.126694,-0.64343 2.126483,-1.4614 3.154741,-2.24292 3.396803,-1.91589 6.761877,-3.88916 10.190409,-5.74768 0.566224,-0.30693 1.365602,-0.13689 1.975437,-0.40807 0.200485,-0.0892 0.753266,-0.45026 0.562338,-0.34214 -3.008667,1.70374 -6.010545,3.41944 -9.01582,5.12916 1.293894,-0.63627 2.127869,-1.64082 2.882212,-2.8313 0.748982,-1.12602 1.437468,-2.28808 2.189443,-3.41208 0.713883,-0.89671 1.464548,-1.70965 1.949219,-2.755844 0.680009,-1.090978 1.296824,-2.217023 1.946207,-3.326749 0.698365,-1.054013 1.681173,-1.885966 2.576504,-2.774101 0.990912,-0.845592 2.029079,-1.640959 2.987429,-2.524342 0.956247,-0.744333 1.923788,-1.474359 2.888231,-2.208572 0.841172,-0.843587 1.742163,-1.559364 2.747738,-2.193782 1.295461,-0.985629 2.634909,-1.894594 3.992033,-2.791931 3.407027,-1.944299 6.81405,-3.888594 10.221077,-5.832893 0.227213,-0.06434 0.462367,-0.105373 0.681646,-0.193027 0.818605,-0.327229 1.479703,-0.66567 2.363237,-0.839549 1.069165,-0.487315 1.942359,-1.154676 3.098289,-1.446893 -0.35405,0.09414 1.331532,-0.70073 1.005872,-0.512259 -2.887459,1.671063 -11.600545,6.595779 -8.706903,4.935447 11.050661,-6.340705 6.779135,-3.741391 10.499071,-6.009283 -3.147126,1.836071 -6.294249,3.672139 -9.441373,5.50821 0.242343,0.477568 0.228465,1.628256 0.727028,1.432705 5.597352,-2.195438 13.28204,-8.016851 7.346296,-3.953899 -1.780294,1.176174 -3.507883,2.431516 -5.331968,3.539554 -0.206388,0.132879 -0.406249,0.276492 -0.619165,0.39864 -3.400369,1.950751 -6.7867,3.926993 -10.219801,5.819547 -0.404746,0.223123 -0.896323,0.24634 -1.312066,0.448241 -0.22085,0.107252 -0.855914,0.481505 -0.642876,0.359463 2.963902,-1.697908 5.930339,-3.391389 8.895511,-5.087083 -24.464126,14.136743 -3.982114,2.289527 -1.361821,0.816978 0.227491,-0.127847 -0.422958,0.305906 -0.629592,0.465275 -0.579348,0.446831 -1.142222,0.914559 -1.69105,1.397958 -0.961213,0.925867 -2.091724,1.640343 -3.109434,2.496603 -0.413975,0.217355 -1.380617,1.409422 -1.786789,1.508114 -0.108987,0.02648 -0.156877,-0.255344 -0.273143,-0.649552 0.863666,-0.543279 1.762972,-1.004604 2.742166,-1.328481 1.421368,-0.36967 2.788192,-0.875895 4.143361,-1.430207 1.290029,-0.685832 2.665098,-1.256985 4.070681,-1.665277 4.5295,-0.858854 11.072479,-5.323195 -5.467911,4.026236 3.661947,-2.348971 7.482158,-4.376693 11.315041,-6.485705 0.05126,-0.0282 0.207942,0.03582 0.160769,0.07042 -3.159506,2.317794 -6.378374,4.553566 -9.567561,6.83035 -1.407975,0.270939 -2.882487,0.479478 -4.259209,0.909683 -1.552546,0.367088 -3.028199,0.943343 -4.596826,1.250868 -1.519851,0.371718 -2.874912,1.07188 -4.246036,1.787075 -0.216776,0.08532 -0.444116,0.147566 -0.650325,0.255961 -0.04556,0.02394 -0.745294,0.539977 -0.896752,0.577043 -0.624893,0.152931 -1.514938,-1.36234 -0.681985,-1.599227 3.040216,-3.107422 -0.995984,0.964486 10.335879,-6.114343 2.997449,-1.872459 -6.121484,3.534291 -9.192394,5.283665 -0.198496,0.113075 0.376848,-0.259058 0.574153,-0.3742 3.401656,-1.985113 6.844062,-3.900847 10.221958,-5.926121 2.924802,-1.753616 -5.908334,3.407357 -8.862499,5.111035 4.088206,-3.88162 8.149785,-4.768291 12.522779,-6.858624 2.064176,-0.986697 -0.84677,0.194998 1.424445,-0.689173 1.748483,-0.742278 3.431749,-1.636144 5.211509,-2.303529 3.676306,-2.001128 1.878893,-1.029555 -8.101457,4.650655 -0.231291,0.131638 0.457737,-0.271637 0.684699,-0.410601 0.594868,-0.364221 1.05079,-0.71034 1.513343,-1.230019 0.695671,-1.064062 -0.166937,-1.364245 -1.095235,-1.556584 -1.413209,-0.199548 -2.845956,-0.175731 -4.269732,-0.173193 -0.531265,0.0028 -0.901925,-0.05632 -1.39717,0.164409 -0.512513,0.228418 -0.952915,0.626793 -1.482563,0.858309 3.054212,-1.745041 6.108427,-3.490082 9.16264,-5.235123 -1.083525,0.676122 -2.161085,1.343382 -3.149045,2.15446 -1.003181,0.790099 -1.937705,1.660207 -2.900989,2.497743 -1.022358,0.897181 -1.91361,1.801487 -2.547504,3.010916 -0.687893,1.278371 -1.365086,2.55886 -2.116235,3.801496 -0.690608,1.35259 -1.379268,2.705852 -2.067796,4.05937 -0.643157,1.335887 -1.621655,2.45781 -2.410314,3.703058 -0.824518,1.175642 -1.964756,2.086118 -3.052479,3.009408 -1.06298,0.789342 -2.08656,1.630182 -3.139509,2.431653 -3.596606,2.352988 -7.060803,4.176208 -11.091336,6.409358 -3.07376,1.70304 12.145904,-7.072298 9.149784,-5.2361 -8.910267,5.46074 -6.482985,4.60721 -10.656583,6.00422 -1.108938,0.61158 -2.353974,1.03269 -3.392633,1.75779 16.091489,-10.386277 9.184658,-5.62579 5.869273,-2.36056 -1.192361,1.24609 -2.529023,2.34142 -3.752586,3.55436 -0.920977,0.88597 -1.819674,1.798 -2.7658,2.65704 -0.91675,1.03861 -1.619655,2.26285 -2.320023,3.45532 -0.480325,0.80294 -0.980109,1.58135 -1.369848,2.43309 0,0 -10.163926,4.71817 -10.163926,4.71817 v 0 c 0.300601,-0.93645 0.678993,-1.82139 1.328031,-2.57841 0.650684,-1.28049 1.466011,-2.45384 2.16351,-3.70639 0.821794,-0.98885 1.865448,-1.78868 2.795352,-2.67405 1.180024,-1.29083 2.541487,-2.36699 3.784045,-3.59446 4.038269,-4.07017 6.731402,-6.29492 13.156075,-8.96146 1.168194,-0.53458 2.274017,-1.195396 3.473146,-1.666849 3.574491,-1.960798 0.657828,-0.365752 -8.625626,5.005859 2.5756,-1.3954 23.005791,-13.324047 1.001461,-0.52851 -0.330761,0.19234 1.383684,-0.74349 0.949153,-0.64551 1.215546,-0.5627 2.053709,-1.63877 3.226721,-2.28271 1.076314,-0.88514 2.145628,-1.779849 3.147991,-2.737402 0.894483,-1.120235 1.585251,-2.401628 2.503961,-3.512648 0.589423,-1.434084 1.496899,-2.707965 2.044854,-4.167296 0.699706,-1.260589 1.502219,-2.460302 2.090012,-3.782145 0.737071,-1.185709 1.14562,-2.509366 2.435696,-3.273758 0.837687,-1.0004 1.952654,-1.706679 2.845811,-2.654184 1.045019,-0.731247 1.927408,-1.657326 3.091511,-2.223984 3.362854,-1.944174 6.7203,-3.897736 10.088562,-5.832522 0.985337,-0.565994 2.027309,-0.676953 3.150788,-0.605171 1.503167,0.01704 3.034234,0.01053 4.488786,0.439682 1.469488,0.611896 2.454664,1.667274 2.088033,3.361774 -0.500893,1.013222 -1.062138,1.553869 -2.039924,2.117162 -10.527792,6.064948 -6.659189,4.361579 -11.088021,6.270215 -1.747583,0.759153 -3.46697,1.583084 -5.211743,2.349296 -3.896263,1.936551 -11.727508,5.450816 5.250476,-3.407005 -34.331362,19.843146 6.002036,-3.518567 -1.898775,1.113044 -3.342677,1.959541 -6.661414,3.961696 -10.046903,5.846302 -2.998306,1.669071 12.832582,-7.122343 8.872357,-5.221291 -0.342035,0.767962 -0.114993,0.481505 -1.015407,-1.05265 -0.186902,-0.318449 0.604851,-0.429955 0.937808,-0.589589 0.204025,-0.09782 0.404915,-0.202049 0.607374,-0.303072 1.395111,-0.707345 2.886673,-1.198925 4.408041,-1.557658 1.531829,-0.401391 3.029124,-0.925052 4.575743,-1.274561 1.455405,-0.302303 2.901556,-0.664684 4.38067,-0.829406 -11.732496,9.243674 -11.205512,8.267867 0.951925,1.351005 0.135004,-0.07681 -0.248528,0.186373 -0.372792,0.279559 -0.714161,0.35706 -0.369991,0.150289 -1.03079,0.62317 -8.371279,4.780212 -7.740621,5.203757 -13.826514,6.892301 -1.37083,0.522687 -2.707674,1.121368 -4.042746,1.727025 -1.360506,0.535678 -2.786623,0.889831 -4.151389,1.416913 -1.046639,0.464172 -2.121921,1.185325 -3.288771,0.735126 -0.185621,-0.223044 -0.409924,-0.418904 -0.556861,-0.669131 -0.580162,-0.987997 1.040498,-1.790912 1.60968,-2.261143 1.002028,-1.021961 2.072773,-1.612164 3.087056,-2.560788 0.588391,-0.449418 1.136089,-0.937225 1.709486,-1.404297 0.208216,-0.169609 0.366262,-0.402865 0.595704,-0.542428 5.334378,-3.24476 20.325802,-11.881445 1.337228,-0.89695 3.428627,-1.972477 6.842477,-3.970867 10.28588,-5.917436 0.310148,-0.175326 1.032016,-0.402635 1.367544,-0.542435 0.201234,-0.08385 0.78063,-0.386927 0.592725,-0.276402 -5.055401,2.973564 -12.278788,7.091047 -8.329707,4.838832 1.757153,-1.22859 3.67707,-2.233031 5.387411,-3.542745 4.057264,-2.702864 6.065774,-4.812048 11.867959,-7.163868 0.500179,-0.20274 0.584595,0.907401 0.87689,1.361104 -3.261643,1.938356 -6.523283,3.876714 -9.784926,5.81507 -3.546369,1.679827 -0.571532,0.283361 8.74346,-5.104982 0.157896,-0.09133 -0.312198,0.188791 -0.470191,0.279956 -2.962989,1.709666 -7.215857,4.806405 -11.155709,6.252371 -1.040244,0.483595 -1.994408,1.154766 -3.145893,1.372624 -4.039515,1.384559 -10.45923,5.509845 6.074553,-4.004863 -1.405798,0.8089 -2.775799,1.67866 -4.001606,2.749664 -0.61785,0.441386 -1.451531,0.736396 -1.991193,1.260118 -0.135501,0.1315 -0.223843,0.306686 -0.360694,0.436785 -0.130934,0.124473 -0.291054,0.214098 -0.436581,0.321148 -0.811929,0.910095 -1.875808,1.603883 -2.896613,2.257716 -1.01369,0.819576 -1.971723,1.70424 -2.943355,2.574729 -0.606176,0.349057 -0.840181,0.689174 -1.297442,1.198177 -0.606063,0.674642 -0.31046,0.21287 -1.004022,0.76192 -0.165053,0.130662 -0.299255,0.296151 -0.448882,0.444228 -0.691711,1.072692 -1.211799,2.226468 -1.954765,3.258481 -0.323035,0.520925 -0.438045,1.091221 -0.760066,1.611122 -0.47893,0.773231 -0.189767,0.176424 -0.766366,0.832268 -0.135083,0.153646 -0.234415,0.335362 -0.351623,0.503042 -0.932368,0.975148 -1.511424,2.214544 -2.231837,3.346762 -0.857099,1.137619 -1.348267,2.586549 -2.711665,3.255249 -3.40511,1.95955 -6.785035,3.96353 -10.215332,5.87865 -0.57232,0.31952 -1.366798,0.30771 -1.98519,0.52119 -0.192399,0.0664 -0.738735,0.33879 -0.563462,0.23532 3.011353,-1.77788 6.050923,-3.50751 9.076386,-5.26127 -1.189852,0.55859 -2.003187,1.62882 -3.187377,2.20875 -4.049027,2.95818 -8.328933,5.80551 -13.197448,7.05108 -0.663549,0.1396 -1.318895,0.27338 -1.945667,0.54222 -0.208423,0.0894 -0.806,0.41524 -0.610462,0.30036 13.466505,-7.91172 11.61443,-6.8022 8.330623,-4.82733 -20.263672,11.87658 -7.428328,4.33449 -1.328439,0.82877 1.611072,-0.92591 -1.453599,0.80748 -1.770888,0.96457 -0.151672,0.0751 -0.290065,0.17446 -0.435096,0.26169 -0.54142,0.46175 -0.917938,0.94899 0.238513,0.73095 3.437285,-1.20147 9.288087,-5.20835 -7.651252,4.65723 -1.458029,0.84917 3.436207,-2.01365 1.878425,-1.30995 1.051293,-1.03281 2.236727,-1.80972 3.305551,-2.81134 0.484299,-0.36408 0.890709,-0.83481 1.409734,-1.1474 2.449108,-1.47499 8.284065,-5.82725 12.662038,-6.88456 1.179607,-0.14899 3.157627,-0.32168 2.868543,1.5447 -0.433292,0.42381 -0.23097,0.27448 -0.81348,0.61336 -3.9971,2.32535 -7.735284,4.74082 -11.825001,6.72951 2.988709,-1.73978 5.970053,-3.49228 8.966128,-5.21935 0.206555,-0.11906 -0.390911,0.27394 -0.596471,0.39471 -3.391064,1.99247 -6.784139,3.98168 -10.192464,5.94447 -0.61899,0.35646 -1.320782,0.57812 -1.934549,0.94815 30.144114,-17.486253 -22.899162,13.23184 7.344762,-4.22957 0.355475,-0.20524 -1.320356,0.85461 -1.057823,0.63039 -4.024339,3.26618 1.159211,0.39274 -11.084814,6.69295 -3.092328,1.59116 6.020414,-3.48313 9.023533,-5.23686 0.3186,-0.18605 -1.242457,0.62468 -0.933387,0.59487 -3.433011,1.94963 -6.637358,4.35515 -10.272553,5.89527 -1.519578,0.6438 -0.672267,-1.99151 -0.16913,-2.09141 3.263463,-3.07257 12.161859,-4.98008 12.960141,-7.79778 1.231527,-0.56438 2.593618,-1.19419 3.967993,-1.10613 0.546243,0.14084 0.594572,0.0694 0.9852,0.66215 2.67912,4.06569 -6.869462,4.90286 -10.444742,6.86208 -1.076756,0.58589 -2.217788,1.05395 -3.333295,1.56101 -1.318702,0.61595 -2.68574,1.13467 -4.040536,1.66493 -0.03993,0.008 -0.868524,0.21407 -0.994744,0.12113 -0.754372,-0.55545 -0.91773,-1.37019 -0.862657,-1.40543 3.210882,-2.05442 6.600218,-3.81589 9.920681,-5.68804 0.149489,-0.0843 0.322093,-0.11857 0.483139,-0.17785 1.305111,-0.53572 2.591851,-0.80921 4.004377,-0.89692 1.313269,-0.30095 2.456725,-0.89534 3.631146,-1.54101 3.52428,-1.75499 7.697325,-4.36672 -7.686156,4.55983 -0.205827,0.11944 0.415063,-0.23291 0.621041,-0.35208 3.40579,-1.97045 6.80956,-3.94439 10.214239,-5.91675 2.960389,-1.71499 -5.920912,3.42973 -8.881369,5.1446 3.414884,-1.97479 6.788171,-4.02332 10.244653,-5.92436 3.020171,-1.66106 -5.949267,3.48271 -8.935373,5.20427 -0.378989,0.21849 0.754875,-0.4438 1.115235,-0.69182 0.306287,-0.2108 0.549777,-0.50469 0.872365,-0.69513 0.682964,-0.83163 1.581526,-1.53351 2.480133,-2.10972 3.347852,-1.96344 6.708677,-3.90492 10.043554,-5.89031 3.021565,-1.79886 -6.063742,3.56293 -9.103595,5.33071 -0.154334,0.0898 0.308755,-0.1823 0.446275,-0.29615 0.43415,-0.35943 0.847881,-0.7003 1.298117,-1.04658 1.104506,-0.54338 1.74338,-1.59893 2.716197,-2.3264 0.871151,-0.93471 2.032995,-1.4931 2.963095,-2.35902 0.823537,-1.07923 1.905786,-1.94788 2.54722,-3.170642 0.770795,-0.940274 1.614583,-1.783157 2.556405,-2.54214 0.579964,-0.629928 1.285269,-1.176388 2.02538,-1.606934 12.030199,-6.998353 14.574922,-8.46301 1.294569,-0.777065 28.61737,-16.48805 0.23364,-0.14228 1.313487,-0.736701 4.090781,-2.251837 7.958325,-5.198665 12.406571,-6.794275 1.696038,-0.54243 3.430916,-0.929957 5.144146,-1.412944 6.653816,-1.326483 1.712526,4.56319 -6.137987,6.973573 -1.262769,0.346326 -2.537375,0.640987 -3.834392,0.831442 -1.443635,0.07843 -2.904947,0.06869 -4.317552,0.419931 -0.58945,0.173649 -0.730171,0.193064 -1.28932,0.444617 -0.20183,0.0908 -0.783797,0.410863 -0.592643,0.299328 18.702237,-10.91244 4.821502,-2.663531 -1.618795,0.897424 -0.360537,0.157994 -1.40276,0.713346 -1.062405,0.515591 3.018329,-1.753735 12.132574,-6.910144 9.065969,-5.242261 -34.230445,18.617466 6.66469,-2.834891 -1.777558,0.959371 -1.19207,0.885722 -2.518516,1.562474 -3.418999,2.807158 -0.945761,1.213795 -1.285298,2.738398 -2.069227,4.051308 -0.679389,1.467067 -1.448694,2.899469 -2.281565,4.283509 -0.716923,1.24345 -1.655067,2.32972 -2.582731,3.41403 -3.284796,3.53023 4.001667,-4.21586 -10.43447,6.38305 -2.830074,2.07781 12.225033,-6.90757 9.117377,-5.27382 -3.784169,1.98939 -7.364079,4.38145 -11.164435,6.35556 -1.434774,0.54581 -2.934266,0.89584 -4.331671,1.54179 -1.584907,0.66677 -3.08379,1.51123 -4.703828,2.0976 -0.444318,0.16164 -1.269373,0.45526 -1.691712,0.63714 -0.305387,0.13152 -1.187942,0.59561 -0.902028,0.42587 18.299713,-10.86386 3.806116,-1.88723 -2.662356,1.43507 2.940552,-1.71039 11.764531,-6.83753 8.821655,-5.13115 -3.897043,2.25964 -8.046773,5.36008 -12.55123,6.86582 2.842548,-2.30366 5.657427,-4.64189 8.527645,-6.91097 0.03576,-0.0283 0.06231,0.0857 0.107868,0.0841 0.07836,-0.003 0.282755,-0.13495 0.214924,-0.0956 -3.077009,1.78423 -6.161376,3.55574 -9.243597,5.33095 -0.162055,0.0933 0.322051,-0.1902 0.483079,-0.2853 3.3733,-1.93435 6.746602,-3.86869 10.119905,-5.80303 1.160026,-0.51307 2.351421,-0.95611 3.498074,-1.49938 1.219399,-0.44407 2.465544,-0.80802 3.735901,-1.07277 1.356873,-0.43517 2.693919,-0.9659 3.990761,-1.55184 3.410511,-1.87234 8.300111,-4.70973 -7.408765,4.34044 -1.981507,1.14158 4.056338,-2.2668 1.883008,-1.17955 1.077926,-0.65866 1.910546,-1.20272 2.607178,-2.31231 0.837731,-0.86005 1.463762,-1.88101 2.023605,-2.93267 1.020923,-1.10484 -0.274691,0.35295 0.711266,-0.95871 0.493297,-0.65625 1.277244,-1.09221 1.888241,-1.62187 0.891553,-0.91757 1.558255,-1.98669 2.584839,-2.77197 1.179946,-0.92177 1.759492,-2.238549 2.79124,-3.294035 1.135999,-1.238666 1.788819,-2.757033 2.643817,-4.190259 1.079654,-1.473751 2.124324,-3.004034 3.681148,-4.020569 3.39657,-1.969635 6.808277,-3.913396 10.18971,-5.90891 2.979748,-1.758463 -12.015533,6.866464 -8.984617,5.197739 3.440668,-1.894316 6.764583,-3.996518 10.214107,-5.874655 3.009913,-1.638784 -5.931162,3.435409 -8.894853,5.156372 -0.22562,0.131014 0.453742,-0.257669 0.680615,-0.386506 3.416159,-1.975297 6.832319,-3.950597 10.248481,-5.925894 1.423625,-0.626932 2.900445,-1.132263 4.421521,-1.466543 0.882899,-0.139589 1.826808,-0.20778 2.704031,0.03727 4.467027,1.247838 -7.468608,6.390724 -8.230303,6.974202 -1.122413,0.242131 -2.219331,0.638649 -3.331192,0.923867 -1.179436,0.477993 -2.388261,0.862134 -3.569324,1.338053 -1.353593,0.352788 -2.747494,0.486842 -4.081965,0.910249 -1.380004,0.495779 -2.795919,0.872741 -4.157443,1.421217 -1.373529,0.463672 -2.813058,0.791075 -4.064069,1.549088 -3.360774,1.917258 -4.723238,2.69725 8.518099,-4.993277 1.457566,-0.846551 -3.410238,2.28151 -1.917277,1.448567 -1.036576,0.544716 -1.721974,1.465908 -2.487509,2.320478 -0.82628,0.66771 -1.492369,1.567352 -2.09559,2.431362 -0.844193,0.9662 0.13072,-0.210841 -0.649131,0.952513 -0.440222,0.656712 -1.168186,1.114941 -1.714455,1.6725 -0.804553,0.944848 -1.750402,1.767991 -2.478519,2.778951 -0.832556,0.8205 -1.481762,1.79843 -2.140185,2.75217 -0.852551,0.66455 -1.531851,1.54099 -2.296142,2.29968 -0.952264,0.7415 -1.724954,1.69409 -2.699144,2.41911 -4.242469,2.58244 -8.39814,5.35853 -12.980665,7.28294 -3.893505,1.83512 -10.325125,5.8552 6.357051,-3.92845 -0.994939,0.45499 -1.535266,1.34854 -2.216724,2.16394 -0.564705,1.20655 -1.137052,2.41868 -1.468625,3.71843 -0.621707,1.84168 -1.410856,3.62115 -2.032773,5.46429 0,0 -10.22337,4.62538 -10.22337,4.62538 z"
       inkscape:connector-curvature="0"
       style="stroke-width:0.26458332" />
    <path
       id="path24"
       d="m 166.76078,223.1749 c 1.03559,-1.55162 1.78933,-3.24591 2.59805,-4.91847 0.60166,-1.33611 1.00736,-2.75056 1.45389,-4.14365 0.50708,-1.35189 1.18361,-2.63253 1.85699,-3.90718 0.77617,-1.15228 1.38048,-2.39699 2.04121,-3.61399 0.51665,-1.08232 1.10634,-2.1129 1.42467,-3.27427 0.15762,-0.8474 0.091,-0.41644 0.19774,-1.29321 0,0 10.03117,-4.99085 10.03117,-4.99085 v 0 c -0.0682,0.94676 -0.0247,0.47714 -0.12969,1.40894 -0.22616,1.33096 -0.69129,2.364 -1.30021,3.54615 -0.63184,1.25436 -1.26353,2.50128 -2.02233,3.68776 -0.80653,1.13839 -1.33083,2.47157 -1.93292,3.72472 -0.63423,1.34327 -0.85755,2.85987 -1.44199,4.22954 -0.79126,1.66828 -1.50406,3.39047 -2.55321,4.91913 0,0 -10.22337,4.62538 -10.22337,4.62538 z"
       inkscape:connector-curvature="0"
       style="stroke-width:0.26458332" />
    <path
       id="path26"
       d="m 103.4437,224.15611 c 1.93933,0.16559 3.70227,-0.59944 5.41704,-1.38835 1.22954,-0.49454 2.35284,-1.19944 3.52519,-1.80707 -14.9985,11.83474 -10.58406,5.86656 -6.9785,3.65445 4.01221,-3.40839 8.15257,-6.15908 13.18661,-6.46761 1.48876,-0.0621 2.97936,-0.0487 4.46904,-0.0443 1.39639,0.10891 2.60139,-0.63696 3.89602,-1.02538 1.39142,-0.4607 2.89948,-0.22688 4.28822,-0.62661 0.20489,-0.0547 0.40978,-0.10943 0.61466,-0.16414 0,0 -8.92081,6.79492 -8.92081,6.79492 v 0 c -0.21288,0.0414 -0.42577,0.0829 -0.63865,0.12435 -1.41585,0.13619 -2.84625,0.24122 -4.19312,0.7408 -1.33776,0.4792 -2.65625,0.87036 -4.10115,0.73376 -1.47115,0.002 -2.94681,-0.008 -4.41189,0.14437 -0.64037,0.0925 -1.26876,0.18487 -1.87313,0.43003 -0.17787,0.0721 -0.68392,0.34792 -0.51836,0.25078 6.79149,-3.98483 12.30156,-7.09469 8.64654,-5.03016 -0.87415,0.75063 0.0597,0.0179 -0.91032,0.57964 -0.69509,0.40253 -0.18615,0.20213 -0.80193,0.73479 -3.07483,2.65972 -13.96178,-5.06436 -10.49592,6.21238 -1.13863,0.64768 -2.343,1.18928 -3.5496,1.69738 -1.830241,0.73861 -3.740948,1.12513 -5.723775,1.04848 0,0 9.073835,-6.59253 9.073835,-6.59253 z"
       inkscape:connector-curvature="0"
       style="stroke-width:0.26458332" />
  </g>
</svg>
